<?xml version="1.0" standalone="no"?>
<!DOCTYPE svg PUBLIC "-//W3C//DTD SVG 20010904//EN"
 "http://www.w3.org/TR/2001/REC-SVG-20010904/DTD/svg10.dtd">
<svg version="1.0" xmlns="http://www.w3.org/2000/svg"
 width="1005.000000pt" height="180.000000pt" viewBox="0 0 1005.000000 180.000000"
 preserveAspectRatio="xMidYMid meet">

<g transform="translate(0.000000,180.000000) scale(0.100000,-0.100000)"
fill="#000000" stroke="none">
<path d="M0 900 l0 -900 317 0 317 0 -51 52 c-29 29 -84 87 -123 128 l-71 75
163 3 163 3 56 55 c31 31 59 52 62 47 3 -4 11 -36 18 -71 l13 -63 -114 -114
-115 -115 4708 0 4707 0 0 258 0 257 -24 -50 c-55 -119 -194 -175 -361 -146
-97 17 -192 70 -230 127 -18 28 -15 35 43 98 l43 46 49 -49 c56 -56 101 -75
182 -75 67 -1 111 25 116 68 6 49 -54 93 -157 115 -166 35 -252 117 -254 242
-1 107 73 198 186 231 53 14 169 14 224 -1 54 -15 134 -69 153 -104 15 -28 15
-29 -39 -78 l-54 -50 -36 35 c-44 43 -78 56 -142 56 -86 0 -133 -41 -114 -99
9 -28 51 -49 157 -77 48 -13 105 -32 126 -43 42 -22 92 -72 115 -116 15 -28
16 17 17 563 l0 592 -5025 0 -5025 0 0 -900z m410 775 l0 -70 145 -145 145
-145 0 -70 0 -69 67 -68 67 -68 143 0 143 0 32 -45 c28 -40 36 -45 69 -45 32
0 41 5 58 34 12 18 21 40 21 47 0 8 -41 38 -90 67 -84 49 -92 52 -157 52 -50
0 -79 6 -108 21 -51 27 -55 34 -55 92 0 45 1 47 29 47 23 0 34 -8 51 -35 19
-30 27 -35 61 -35 39 0 39 0 39 40 0 37 -6 46 -67 105 l-68 64 -112 1 -111 0
-71 70 -71 70 1 77 c1 129 -1 129 131 -7 l116 -120 73 0 72 0 104 -102 c103
-103 103 -103 104 -153 0 -49 2 -51 57 -96 53 -42 59 -45 90 -36 31 10 36 7
78 -33 24 -25 44 -48 44 -54 0 -5 -45 -53 -99 -108 -99 -98 -99 -98 -150 -98
-48 0 -52 2 -93 50 l-43 50 -139 0 -139 0 -89 90 -88 91 0 68 c0 62 -2 70 -31
97 -28 27 -36 29 -122 32 -58 3 -121 -2 -169 -12 -114 -24 -118 -22 -73 24 34
35 65 51 193 101 l24 9 -36 40 -36 40 0 118 c0 65 3 122 6 125 4 4 17 -4 30
-16 20 -19 24 -32 24 -92z m-130 -461 c0 -4 -15 -30 -34 -58 -19 -28 -46 -76
-61 -107 -26 -52 -34 -59 -96 -90 -38 -18 -71 -30 -74 -28 -10 11 94 176 145
231 45 47 61 58 88 58 17 0 32 -3 32 -6z m1737 -79 c51 -15 115 -59 141 -96
14 -20 11 -25 -36 -72 l-50 -50 -42 36 c-106 90 -282 58 -256 -47 9 -36 52
-60 156 -86 159 -39 238 -106 248 -210 17 -185 -148 -300 -373 -261 -84 15
-148 47 -199 99 l-39 41 31 38 c16 21 39 46 49 56 20 17 21 16 47 -17 30 -40
112 -82 177 -91 63 -9 135 21 145 61 17 66 -36 111 -161 139 -149 34 -224 91
-246 190 -27 122 36 223 170 271 49 18 176 17 238 -1z m2546 -19 c160 -78 248
-253 220 -436 -22 -138 -94 -236 -216 -296 -205 -99 -446 -17 -540 184 -25 55
-32 83 -35 155 -7 134 23 220 106 309 83 89 161 118 302 115 92 -2 112 -6 163
-31z m-1813 -83 c23 -60 86 -225 140 -368 54 -143 103 -273 109 -288 l11 -28
-82 3 -82 3 -31 80 -31 80 -149 3 c-94 2 -152 -1 -159 -8 -6 -6 -22 -43 -37
-83 l-26 -72 -78 -3 c-71 -3 -77 -1 -72 15 4 15 256 672 288 751 8 20 15 22
83 22 l75 0 41 -107z m717 -148 c102 -137 188 -257 193 -265 5 -8 11 -13 13
-10 3 3 1 117 -4 254 -5 138 -7 256 -5 263 4 9 29 13 86 13 l80 0 0 -395 0
-396 -77 3 -76 3 -192 252 c-105 139 -193 255 -196 257 -2 2 -2 -112 -1 -255
l4 -259 -81 0 -81 0 0 395 0 396 76 -3 77 -3 184 -250z m1842 245 c35 -6 85
-22 111 -35 47 -24 100 -76 100 -99 0 -6 -22 -33 -48 -59 l-49 -48 -34 32
c-45 42 -87 59 -150 59 -89 0 -140 -52 -104 -106 20 -32 42 -42 146 -70 187
-50 253 -114 253 -244 0 -72 -22 -126 -71 -172 -119 -113 -382 -97 -510 32
-24 24 -43 46 -43 50 0 3 23 32 52 64 l51 58 40 -42 c50 -51 97 -76 163 -84
65 -9 131 15 140 50 17 66 -24 101 -155 133 -164 41 -238 106 -248 218 -7 75
8 123 55 175 43 48 80 68 152 84 70 16 73 16 149 4z m-4759 -104 c0 -5 -22
-33 -50 -62 l-50 -53 0 -75 c0 -71 1 -76 40 -124 21 -28 43 -53 48 -56 13 -8
25 59 17 94 -4 16 -3 36 2 44 7 12 35 -11 133 -109 l124 -125 -85 -85 -85 -85
-74 0 -75 0 -92 92 -93 93 0 195 0 195 77 78 76 78 44 -43 c24 -23 43 -46 43
-52z m5680 19 l0 -75 -185 0 -185 0 0 -85 0 -85 155 0 155 0 0 -75 0 -75 -155
0 -155 0 0 -85 0 -85 188 -2 187 -3 0 -75 0 -75 -272 -3 -273 -2 0 400 0 400
270 0 270 0 0 -75z m616 60 c104 -31 174 -127 174 -239 -1 -80 -27 -139 -89
-196 l-49 -45 84 -140 c45 -77 83 -146 83 -153 1 -10 -22 -12 -96 -10 l-96 3
-80 143 -81 142 -58 0 -57 0 -3 -142 -3 -143 -82 -3 -83 -3 0 401 0 400 193 0
c141 0 207 -4 243 -15z m417 3 c66 -169 187 -491 192 -511 4 -15 10 -29 14
-31 3 -2 51 120 107 272 l101 277 91 3 c51 1 92 1 92 0 0 -2 -71 -181 -158
-398 l-158 -395 -76 -3 -76 -3 -156 391 c-86 214 -156 395 -156 400 0 15 177
13 183 -2z m1247 -63 l0 -75 -182 -2 -183 -3 0 -80 0 -80 158 -3 158 -3 -3
-72 -3 -72 -157 -3 -158 -3 0 -84 0 -85 190 0 191 0 -3 -77 -3 -78 -270 0
-270 0 -3 398 -2 397 270 0 270 0 0 -75z m633 55 c102 -38 161 -125 161 -235
0 -85 -22 -134 -89 -193 -25 -22 -45 -42 -45 -45 0 -2 38 -69 84 -148 46 -79
82 -147 79 -151 -2 -5 -46 -8 -98 -8 l-93 0 -82 145 -82 146 -56 -3 -57 -3 -5
-140 -5 -140 -80 0 -80 0 -3 398 -2 397 200 0 c175 0 206 -2 253 -20z m-9018
-370 c-5 -97 -4 -140 3 -140 6 0 26 14 44 30 l33 31 3 -51 c2 -27 2 -73 0
-102 l-3 -52 -87 89 c-97 100 -100 108 -77 215 11 49 58 120 81 120 6 0 7 -49
3 -140z m945 -95 l94 -95 -54 -56 c-30 -31 -77 -80 -105 -108 l-50 -51 -4 30
c-5 46 10 375 18 375 3 0 49 -43 101 -95z"/>
<path d="M4295 971 c-51 -23 -111 -89 -124 -138 -35 -125 13 -264 109 -313
131 -67 282 -1 324 141 20 66 20 102 1 165 -40 133 -186 202 -310 145z"/>
<path d="M2616 893 c-4 -16 -25 -74 -47 -131 -21 -57 -37 -108 -34 -113 8 -11
182 -12 189 -1 6 10 -86 272 -95 272 -4 0 -10 -12 -13 -27z"/>
<path d="M6580 860 l0 -110 94 0 c52 0 106 4 120 10 49 18 73 111 40 158 -27
40 -66 52 -164 52 l-90 0 0 -110z"/>
<path d="M8860 860 l0 -112 111 4 c107 3 112 4 135 31 36 42 33 106 -5 149
-29 33 -30 33 -135 36 l-106 4 0 -112z"/>
</g>
</svg>
